<svg width="26" height="46" viewBox="0 0 26 46" fill="none" xmlns="http://www.w3.org/2000/svg">
<path d="M15.9141 45.9675H8.67385C7.4645 45.9675 6.48074 44.9837 6.48074 43.7744V27.4436H2.25662C1.04727 27.4436 0.0635071 26.4595 0.0635071 25.2505V18.2528C0.0635071 17.0434 1.04727 16.0596 2.25662 16.0596H6.48074V12.5554C6.48074 9.08085 7.57178 6.12473 9.63554 4.00716C11.7086 1.87992 14.6058 0.755768 18.0137 0.755768L23.5355 0.764736C24.7428 0.766806 25.7248 1.75057 25.7248 2.95785V9.45511C25.7248 10.6645 24.7414 11.6482 23.5324 11.6482L19.8147 11.6496C18.6809 11.6496 18.3921 11.8769 18.3304 11.9466C18.2286 12.0622 18.1076 12.3888 18.1076 13.2908V16.0593H23.253C23.6404 16.0593 24.0157 16.1548 24.3382 16.3349C25.0339 16.7236 25.4665 17.4587 25.4665 18.2531L25.4637 25.2509C25.4637 26.4595 24.48 27.4433 23.2706 27.4433H18.1076V43.7744C18.1076 44.9837 17.1235 45.9675 15.9141 45.9675ZM9.13124 43.317H15.4567V26.2571C15.4567 25.4495 16.1138 24.7928 16.921 24.7928H22.8132L22.8156 18.7101H16.9206C16.1135 18.7101 15.4567 18.0534 15.4567 17.2459V13.2908C15.4567 12.2553 15.5619 11.0777 16.3436 10.1926C17.288 9.12259 18.7764 8.9991 19.814 8.9991L23.0743 8.99772V3.41455L18.0117 3.40627C12.5347 3.40627 9.13124 6.91223 9.13124 12.5554V17.2459C9.13124 18.053 8.47448 18.7101 7.66733 18.7101H2.71401V24.7928H7.66733C8.47448 24.7928 9.13124 25.4495 9.13124 26.2571V43.317Z" fill="white"/>
</svg>
