<svg width="107" height="107" viewBox="0 0 107 107" fill="none" xmlns="http://www.w3.org/2000/svg">
<path d="M91.8515 15.41C82.1431 5.70166 69.2383 0.355835 55.5078 0.355835C55.507 0.355835 55.5038 0.355835 55.503 0.355835C48.7121 0.356644 42.0943 1.67147 35.8347 4.26473C29.5744 6.858 23.9657 10.6076 19.1633 15.41C9.45574 25.1176 4.10992 38.0249 4.10992 51.7537C4.10992 59.9411 6.08539 68.0775 9.82852 75.3268L1.18916 100.008C0.580265 101.749 1.01126 103.641 2.31639 104.945C3.22932 105.859 4.43094 106.344 5.66652 106.344C6.19617 106.344 6.73148 106.255 7.25386 106.072L31.9347 97.4338C39.1841 101.177 47.3205 103.152 55.5078 103.152C69.2367 103.152 82.1431 97.8058 91.8515 88.0982C101.559 78.3907 106.906 65.4834 106.906 51.7545C106.906 38.0249 101.56 25.1176 91.8515 15.41ZM87.4558 83.7025C78.9224 92.2368 67.5757 96.9357 55.5078 96.9357C48.1251 96.9357 40.7908 95.1098 34.2975 91.6538C33.1202 91.0279 31.7285 90.9203 30.4792 91.3578L8.05601 99.2055L15.9045 76.7823C16.342 75.5314 16.2336 74.1397 15.6078 72.9632C12.1525 66.4715 10.3258 59.1373 10.3258 51.7537C10.3258 39.6858 15.0256 28.3391 23.559 19.8057C32.0916 11.2731 43.4366 6.57336 55.5038 6.57174H55.5078C67.5766 6.57174 78.9224 11.2715 87.4558 19.8057C95.9901 28.3391 100.69 39.685 100.69 51.7537C100.69 63.8225 95.9901 75.1691 87.4558 83.7025Z" fill="black"/>
<path d="M74.6093 56.3449C72.2449 53.9805 68.3975 53.9805 66.0331 56.3449L63.4471 58.9309C57.0258 55.432 51.8295 50.2358 48.3298 43.8145L50.9158 41.2285C53.281 38.8641 53.281 35.0166 50.9158 32.6522L43.947 25.6835C41.5826 23.319 37.7352 23.319 35.3708 25.6835L29.7961 31.2581C26.6028 34.4514 26.4435 39.9412 29.3473 46.7166C31.8686 52.5994 36.4826 59.0652 42.3395 64.922C48.1964 70.7789 54.6622 75.3929 60.5449 77.9142C63.764 79.2938 66.6921 79.9819 69.2223 79.9819C72.0177 79.9819 74.3271 79.1417 76.0034 77.4654L81.5781 71.89C82.7239 70.7441 83.3546 69.2223 83.3546 67.6026C83.3546 65.9821 82.7239 64.4595 81.5781 63.3145L74.6093 56.3449ZM71.6077 73.0698C70.6964 73.9811 67.8937 74.3005 62.9942 72.2013C57.8206 69.984 52.0462 65.8374 46.7352 60.5263C41.4241 55.2153 37.2783 49.4417 35.0611 44.2681C32.961 39.3686 33.2805 36.5651 34.1918 35.6538L39.6597 30.1859L46.4134 36.9403L43.1764 40.1781C41.7128 41.6417 41.3594 43.8614 42.2983 45.7018C46.5541 54.0468 53.2147 60.7075 61.5597 64.9633C63.401 65.9021 65.6207 65.5495 67.0843 64.0851L70.3212 60.8482L77.0757 67.6026L71.6077 73.0698Z" fill="black"/>
</svg>
