<svg width="100" height="100" viewBox="0 0 100 100" fill="none" xmlns="http://www.w3.org/2000/svg">
<path d="M72.9898 0.273438H27.2982C12.4275 0.273438 0.32962 12.3713 0.32962 27.242V72.9344C0.32962 87.8043 12.4275 99.9022 27.2982 99.9022H72.9905C87.8605 99.9022 99.9584 87.8043 99.9584 72.9344V27.242C99.9584 12.3713 87.8605 0.273438 72.9898 0.273438ZM94.1177 72.9344C94.1177 84.5838 84.6399 94.0615 72.9898 94.0615H27.2982C15.6481 94.0615 6.17028 84.5838 6.17028 72.9344V27.242C6.17028 15.5919 15.6481 6.1141 27.2982 6.1141H72.9905C84.6399 6.1141 94.1177 15.5919 94.1177 27.242V72.9344Z" fill="black"/>
<path d="M50.144 22.8462C35.1228 22.8462 22.9025 35.0665 22.9025 50.0877C22.9025 65.1089 35.1228 77.3292 50.144 77.3292C65.1653 77.3292 77.3855 65.1089 77.3855 50.0877C77.3855 35.0665 65.1653 22.8462 50.144 22.8462ZM50.144 71.4885C38.3441 71.4885 28.7432 61.8884 28.7432 50.0877C28.7432 38.2878 38.3441 28.6869 50.144 28.6869C61.9447 28.6869 71.5448 38.2878 71.5448 50.0877C71.5448 61.8884 61.9447 71.4885 50.144 71.4885Z" fill="black"/>
<path d="M78.0369 13.1716C73.5979 13.1716 69.9874 16.7829 69.9874 21.2212C69.9874 25.6602 73.5979 29.2714 78.0369 29.2714C82.4759 29.2714 86.0872 25.6602 86.0872 21.2212C86.0872 16.7821 82.4759 13.1716 78.0369 13.1716ZM78.0369 23.43C76.8192 23.43 75.828 22.4388 75.828 21.2212C75.828 20.0027 76.8192 19.0123 78.0369 19.0123C79.2554 19.0123 80.2465 20.0027 80.2465 21.2212C80.2465 22.4388 79.2554 23.43 78.0369 23.43Z" fill="black"/>
</svg>
