<svg width="33" height="33" viewBox="0 0 33 33" fill="none" xmlns="http://www.w3.org/2000/svg">
<path d="M28.1672 4.83272C25.0508 1.71631 20.9072 0 16.5 0C12.0927 0 7.94912 1.71631 4.83272 4.83272C1.71631 7.94912 0 12.0927 0 16.5C0 20.9072 1.71631 25.0508 4.83272 28.1672C7.94912 31.2836 12.0927 32.9999 16.5 32.9999C20.9072 32.9999 25.0508 31.2836 28.1672 28.1672C31.2836 25.0508 32.9999 20.9072 32.9999 16.5C32.9999 12.0927 31.2836 7.94912 28.1672 4.83272ZM26.7986 26.7986C24.0478 29.5494 20.3903 31.0646 16.5 31.0646C12.6096 31.0646 8.95217 29.5497 6.20134 26.7986C3.4505 24.0478 1.93535 20.3903 1.93535 16.5C1.93535 12.6096 3.4505 8.95217 6.20134 6.20134C8.95217 3.4505 12.6096 1.9356 16.5 1.9356C20.3903 1.9356 24.0478 3.4505 26.7986 6.20134C29.5494 8.95217 31.0646 12.6096 31.0646 16.5C31.0646 20.3903 29.5494 24.0478 26.7986 26.7986Z" fill="white"/>
<path d="M12.872 12.6469C12.872 13.1814 13.3053 13.6147 13.8398 13.6147C14.3743 13.6147 14.8073 13.1814 14.8073 12.6469C14.8073 10.4792 13.0437 8.71552 10.8759 8.71552C8.7082 8.71552 6.94455 10.4792 6.94455 12.6469C6.94455 13.1814 7.37785 13.6147 7.91236 13.6147C8.44686 13.6147 8.88016 13.1814 8.88016 12.6469C8.88016 11.5464 9.77545 10.6509 10.8759 10.6509C11.9767 10.6509 12.872 11.5464 12.872 12.6469Z" fill="white"/>
<path d="M22.4264 8.71552C20.2586 8.71552 18.495 10.4792 18.495 12.6469C18.495 13.1814 18.9283 13.6147 19.4628 13.6147C19.997 13.6147 20.4303 13.1814 20.4303 12.6469C20.4303 11.5464 21.3259 10.6509 22.4264 10.6509C23.5271 10.6509 24.4224 11.5464 24.4224 12.6469C24.4224 13.1814 24.8557 13.6147 25.3902 13.6147C25.9245 13.6147 26.3578 13.1814 26.3578 12.6469C26.3578 10.4792 24.5941 8.71552 22.4264 8.71552Z" fill="white"/>
<path d="M22.3798 16.6427C21.8453 16.6427 21.412 17.076 21.412 17.6105C21.412 20.2233 19.2863 22.349 16.6734 22.349C14.0606 22.349 11.9349 20.2233 11.9349 17.6105C11.9349 17.076 11.5016 16.6427 10.9673 16.6427C10.4328 16.6427 9.99953 17.076 9.99953 17.6105C9.99953 21.2906 12.9936 24.2844 16.6734 24.2844C20.3536 24.2844 23.3476 21.2906 23.3476 17.6105C23.3476 17.076 22.9143 16.6427 22.3798 16.6427Z" fill="white"/>
</svg>
