<svg width="62" height="107" viewBox="0 0 62 107" fill="none" xmlns="http://www.w3.org/2000/svg">
<path d="M38.1264 106.137H21.1534C18.3183 106.137 16.0121 103.831 16.0121 100.996V62.7122H6.10972C3.27468 62.7122 0.968475 60.4052 0.968475 57.5709V41.1663C0.968475 38.3313 3.27468 36.0251 6.10972 36.0251H16.0121V27.8103C16.0121 19.665 18.5698 12.7351 23.4078 7.77091C28.2677 2.78411 35.0593 0.148804 43.0485 0.148804L55.993 0.169828C58.8232 0.17468 61.1254 2.48088 61.1254 5.31107V20.5423C61.1254 23.3774 58.82 25.6836 55.9857 25.6836L47.2704 25.6868C44.6124 25.6868 43.9356 26.2197 43.7909 26.383C43.5523 26.6539 43.2685 27.4197 43.2685 29.5343V36.0243H55.3308C56.2388 36.0243 57.1186 36.2483 57.8747 36.6704C59.5057 37.5817 60.5197 39.3049 60.5197 41.1671L60.5132 57.5717C60.5132 60.4052 58.207 62.7114 55.372 62.7114H43.2685V100.996C43.2685 103.831 40.9615 106.137 38.1264 106.137ZM22.2256 99.9235H37.0542V59.9305C37.0542 58.0375 38.5946 56.4979 40.4868 56.4979H54.2998L54.3054 42.2386H40.486C38.5938 42.2386 37.0542 40.699 37.0542 38.806V29.5343C37.0542 27.1068 37.3008 24.3461 39.1332 22.2712C41.3472 19.7628 44.8364 19.4733 47.2688 19.4733L54.9119 19.4701V6.38169L43.0437 6.36228C30.2043 6.36228 22.2256 14.5812 22.2256 27.8103V38.806C22.2256 40.6981 20.686 42.2386 18.7938 42.2386H7.18195V56.4979H18.7938C20.686 56.4979 22.2256 58.0375 22.2256 59.9305V99.9235Z" fill="black"/>
</svg>
