<svg width="43" height="44" viewBox="0 0 43 44" fill="none" xmlns="http://www.w3.org/2000/svg">
<path d="M31.4013 0.66217H11.9105C5.56703 0.66217 0.406403 5.8228 0.406403 12.1663V31.6574C0.406403 38.0005 5.56703 43.1612 11.9105 43.1612H31.4016C37.7448 43.1612 42.9054 38.0005 42.9054 31.6574V12.1663C42.9054 5.8228 37.7448 0.66217 31.4013 0.66217ZM40.4139 31.6574C40.4139 36.6267 36.3709 40.6697 31.4013 40.6697H11.9105C6.94084 40.6697 2.89787 36.6267 2.89787 31.6574V12.1663C2.89787 7.19661 6.94084 3.15364 11.9105 3.15364H31.4016C36.3709 3.15364 40.4139 7.19661 40.4139 12.1663V31.6574Z" fill="white"/>
<path d="M21.6559 10.2911C15.2482 10.2911 10.0354 15.5039 10.0354 21.9116C10.0354 28.3193 15.2482 33.5321 21.6559 33.5321C28.0636 33.5321 33.2764 28.3193 33.2764 21.9116C33.2764 15.5039 28.0636 10.2911 21.6559 10.2911ZM21.6559 31.0406C16.6224 31.0406 12.5269 26.9455 12.5269 21.9116C12.5269 16.8781 16.6224 12.7826 21.6559 12.7826C26.6898 12.7826 30.7849 16.8781 30.7849 21.9116C30.7849 26.9455 26.6898 31.0406 21.6559 31.0406Z" fill="white"/>
<path d="M33.5543 6.16419C31.6607 6.16419 30.1205 7.70466 30.1205 9.59791C30.1205 11.4915 31.6607 13.032 33.5543 13.032C35.4478 13.032 36.9883 11.4915 36.9883 9.59791C36.9883 7.70434 35.4478 6.16419 33.5543 6.16419ZM33.5543 10.5402C33.0348 10.5402 32.612 10.1173 32.612 9.59791C32.612 9.07815 33.0348 8.65566 33.5543 8.65566C34.074 8.65566 34.4968 9.07815 34.4968 9.59791C34.4968 10.1173 34.074 10.5402 33.5543 10.5402Z" fill="white"/>
</svg>
