<svg width="46" height="47" viewBox="0 0 46 47" fill="none" xmlns="http://www.w3.org/2000/svg">
<path d="M39.2723 7.26584C35.131 3.1245 29.6261 0.844116 23.7691 0.844116C23.7687 0.844116 23.7673 0.844116 23.767 0.844116C20.8702 0.844461 18.0472 1.40533 15.3771 2.51155C12.7065 3.61777 10.3141 5.21725 8.26547 7.26584C4.12448 11.4068 1.84409 16.9127 1.84409 22.7691C1.84409 26.2616 2.68678 29.7324 4.2835 32.8247L0.598174 43.3529C0.338435 44.0956 0.522287 44.9028 1.07902 45.4591C1.46845 45.8489 1.98103 46.0559 2.5081 46.0559C2.73403 46.0559 2.96238 46.0179 3.18521 45.94L13.7134 42.255C16.8058 43.8517 20.2766 44.6944 23.7691 44.6944C29.6254 44.6944 35.131 42.4137 39.2723 38.2727C43.4133 34.1317 45.694 28.6258 45.694 22.7694C45.694 16.9127 43.4137 11.4068 39.2723 7.26584ZM37.3972 36.3976C33.7571 40.0381 28.9169 42.0425 23.7691 42.0425C20.6198 42.0425 17.4912 41.2637 14.7213 39.7894C14.2191 39.5224 13.6255 39.4765 13.0925 39.6631L3.52739 43.0108L6.87536 33.4456C7.06198 32.912 7.01575 32.3184 6.74877 31.8165C5.27485 29.0473 4.49563 25.9187 4.49563 22.7691C4.49563 17.6212 6.50042 12.7811 10.1406 9.14092C13.7803 5.50113 18.6198 3.49635 23.7673 3.49566H23.7691C28.9173 3.49566 33.7571 5.50044 37.3972 9.14092C41.0377 12.7811 43.0425 17.6209 43.0425 22.7691C43.0425 27.9173 41.0377 32.7575 37.3972 36.3976Z" fill="white"/>
<path d="M31.9173 24.7276C30.9087 23.719 29.2675 23.719 28.2589 24.7276L27.1557 25.8307C24.4166 24.3381 22.2 22.1216 20.7071 19.3824L21.8102 18.2793C22.8192 17.2707 22.8192 15.6295 21.8102 14.6209L18.8376 11.6482C17.829 10.6396 16.1877 10.6396 15.1791 11.6482L12.8011 14.0262C11.439 15.3884 11.371 17.7302 12.6097 20.6204C13.6852 23.1298 15.6534 25.888 18.1518 28.3863C20.6502 30.8847 23.4083 32.853 25.9178 33.9285C27.291 34.5169 28.54 34.8105 29.6193 34.8105C30.8117 34.8105 31.7969 34.4521 32.5119 33.737L34.89 31.3587C35.3787 30.8699 35.6478 30.2207 35.6478 29.5298C35.6478 28.8386 35.3787 28.189 34.89 27.7006L31.9173 24.7276ZM30.6369 31.8619C30.2481 32.2507 29.0526 32.3869 26.9626 31.4915C24.7557 30.5457 22.2925 28.7768 20.0269 26.5113C17.7613 24.2457 15.9928 21.7828 15.047 19.5759C14.1512 17.4859 14.2875 16.29 14.6762 15.9013L17.0087 13.5688L19.8896 16.4501L18.5088 17.8312C17.8845 18.4556 17.7337 19.4024 18.1342 20.1875C19.9496 23.7473 22.7909 26.5885 26.3507 28.4039C27.1361 28.8044 28.0829 28.654 28.7073 28.0293L30.0881 26.6485L32.9693 29.5298L30.6369 31.8619Z" fill="white"/>
</svg>
